<svg xmlns="http://www.w3.org/2000/svg" xmlns:xlink="http://www.w3.org/1999/xlink" width="1587" zoomAndPan="magnify" viewBox="0 0 1190.25 1683.749949" height="2245" preserveAspectRatio="xMidYMid meet" version="1.0"><defs><clipPath id="5f10c21a18"><path d="M 0 0.40625 L 1189.5 0.40625 L 1189.5 1683.09375 L 0 1683.09375 Z M 0 0.40625 " clip-rule="nonzero"/></clipPath><clipPath id="af28de2eb4"><path d="M 200 568 L 966 568 L 966 1485 L 200 1485 Z M 200 568 " clip-rule="nonzero"/></clipPath><clipPath id="3bd3501ff1"><path d="M -141.273438 1011.78125 L 779.597656 172.851562 L 1391.382812 844.390625 L 470.507812 1683.320312 Z M -141.273438 1011.78125 " clip-rule="nonzero"/></clipPath><clipPath id="781a8ae59e"><path d="M -141.273438 1011.78125 L 779.597656 172.851562 L 1391.382812 844.390625 L 470.507812 1683.320312 Z M -141.273438 1011.78125 " clip-rule="nonzero"/></clipPath><clipPath id="832cc4b5e3"><path d="M -141.273438 1011.78125 L 779.597656 172.851562 L 1391.382812 844.390625 L 470.507812 1683.320312 Z M -141.273438 1011.78125 " clip-rule="nonzero"/></clipPath><clipPath id="5e6fb26684"><path d="M 232 525 L 1013 525 L 1013 1456 L 232 1456 Z M 232 525 " clip-rule="nonzero"/></clipPath><clipPath id="9511d3617b"><path d="M -141.273438 1011.78125 L 779.597656 172.851562 L 1391.382812 844.390625 L 470.507812 1683.320312 Z M -141.273438 1011.78125 " clip-rule="nonzero"/></clipPath><clipPath id="66bcfe0b5d"><path d="M -141.273438 1011.78125 L 779.597656 172.851562 L 1391.382812 844.390625 L 470.507812 1683.320312 Z M -141.273438 1011.78125 " clip-rule="nonzero"/></clipPath><clipPath id="665f4975ee"><path d="M -141.273438 1011.78125 L 779.597656 172.851562 L 1391.382812 844.390625 L 470.507812 1683.320312 Z M -141.273438 1011.78125 " clip-rule="nonzero"/></clipPath><clipPath id="a7b82976b1"><path d="M 279 467 L 1077 467 L 1077 1413 L 279 1413 Z M 279 467 " clip-rule="nonzero"/></clipPath><clipPath id="7aa1c5739a"><path d="M -141.273438 1011.78125 L 779.597656 172.851562 L 1391.382812 844.390625 L 470.507812 1683.320312 Z M -141.273438 1011.78125 " clip-rule="nonzero"/></clipPath><clipPath id="665ec2f892"><path d="M -141.273438 1011.78125 L 779.597656 172.851562 L 1391.382812 844.390625 L 470.507812 1683.320312 Z M -141.273438 1011.78125 " clip-rule="nonzero"/></clipPath><clipPath id="5f3586f3a6"><path d="M -141.273438 1011.78125 L 779.597656 172.851562 L 1391.382812 844.390625 L 470.507812 1683.320312 Z M -141.273438 1011.78125 " clip-rule="nonzero"/></clipPath><clipPath id="a3a95ad5fd"><path d="M 342 424 L 1124 424 L 1124 1355 L 342 1355 Z M 342 424 " clip-rule="nonzero"/></clipPath><clipPath id="ca675c8074"><path d="M -141.273438 1011.78125 L 779.597656 172.851562 L 1391.382812 844.390625 L 470.507812 1683.320312 Z M -141.273438 1011.78125 " clip-rule="nonzero"/></clipPath><clipPath id="8f1e0075ce"><path d="M -141.273438 1011.78125 L 779.597656 172.851562 L 1391.382812 844.390625 L 470.507812 1683.320312 Z M -141.273438 1011.78125 " clip-rule="nonzero"/></clipPath><clipPath id="bb79151d5c"><path d="M -141.273438 1011.78125 L 779.597656 172.851562 L 1391.382812 844.390625 L 470.507812 1683.320312 Z M -141.273438 1011.78125 " clip-rule="nonzero"/></clipPath></defs><g clip-path="url(#5f10c21a18)"><path fill="#ffffff" d="M 0 0.40625 L 1189.5 0.40625 L 1189.5 1683.09375 L 0 1683.09375 Z M 0 0.40625 " fill-opacity="1" fill-rule="nonzero"/><path fill="#ffffff" d="M 0 0.40625 L 1189.5 0.40625 L 1189.5 1683.09375 L 0 1683.09375 Z M 0 0.40625 " fill-opacity="1" fill-rule="nonzero"/></g><g clip-path="url(#af28de2eb4)"><g clip-path="url(#3bd3501ff1)"><g clip-path="url(#781a8ae59e)"><g clip-path="url(#832cc4b5e3)"><path fill="#f41fd7" d="M 940.585938 699.09375 L 939.699219 698.121094 C 871.695312 760.074219 899.121094 821.703125 923.316406 876.078125 C 943.027344 920.367188 961.6875 962.394531 929.816406 1000.492188 C 863.414062 1037.402344 669.410156 852.3125 526.476562 715.941406 C 420.03125 614.375 359.128906 557.519531 345.351562 570.074219 C 342.617188 572.5625 342.835938 577.964844 345.785156 586.191406 C 338.039062 582.363281 332.605469 581.6875 329.53125 584.488281 C 315.335938 597.417969 380.433594 688.585938 496.71875 848.609375 C 638.09375 1043.167969 829.148438 1306.09375 802.757812 1372.058594 C 740.691406 1393.210938 566.84375 1233.753906 425.550781 1104.152344 C 309.242188 997.464844 237.148438 932.816406 221.140625 947.402344 C 218.113281 950.15625 216.636719 954.605469 216.425781 960.535156 C 211.472656 959.242188 207.742188 959.605469 205.320312 961.8125 C 190.445312 975.363281 212.460938 1029.332031 242.921875 1104.03125 C 295.464844 1232.84375 367.390625 1409.167969 287.613281 1481.847656 C 287.5 1481.949219 287.378906 1482.0625 287.269531 1482.160156 L 289 1484.082031 C 289.117188 1483.972656 289.238281 1483.867188 289.355469 1483.753906 C 294.652344 1478.933594 299.277344 1473.660156 303.3125 1467.996094 L 304.820312 1469.667969 C 304.9375 1469.558594 305.058594 1469.453125 305.179688 1469.34375 C 386.28125 1395.457031 313.96875 1218.152344 261.144531 1088.640625 C 238.679688 1033.5625 219.890625 987.484375 218.933594 963.847656 C 249.746094 975.316406 326.957031 1046.136719 407.988281 1120.464844 C 558.589844 1258.609375 746.023438 1430.539062 798.699219 1382.550781 C 801.265625 1380.210938 803.253906 1377.355469 804.710938 1374.03125 C 808.355469 1372.679688 811.648438 1370.753906 814.515625 1368.140625 C 868.195312 1319.238281 672.152344 1049.453125 514.628906 832.675781 C 440.40625 730.535156 369.476562 632.925781 350.636719 591.640625 C 381.238281 610.445312 441.5625 667.992188 508.871094 732.214844 C 665.691406 881.839844 860.859375 1068.046875 922.09375 1012.265625 C 925.625 1009.046875 928.71875 1005.800781 931.496094 1002.535156 C 933.769531 1001.222656 935.914062 999.671875 937.910156 997.855469 C 983.917969 955.941406 963.3125 909.636719 941.5 860.613281 C 916.492188 804.417969 890.632812 746.3125 957.257812 685.617188 L 955.515625 683.707031 C 949.886719 688.839844 944.964844 693.96875 940.585938 699.09375 Z M 258.75 1089.617188 C 311.109375 1218 382.707031 1393.5625 304.210938 1466.6875 C 360.367188 1385.175781 294.433594 1223.46875 245.320312 1103.050781 C 216.382812 1032.097656 193.523438 976.054688 207.0625 963.71875 C 208.992188 961.960938 212.164062 961.792969 216.410156 963.007812 C 216.894531 986.976562 235.308594 1032.152344 258.75 1089.617188 Z M 796.957031 1380.644531 C 746.027344 1427.042969 559.5625 1256 409.734375 1118.5625 C 313.839844 1030.601562 248.035156 971.261719 218.910156 961.304688 C 219.007812 955.796875 220.25 951.714844 222.886719 949.3125 C 237.960938 935.578125 328.234375 1018.386719 423.8125 1106.058594 C 563.730469 1234.402344 735.414062 1391.871094 801.3125 1375.089844 C 800.132812 1377.1875 798.699219 1379.058594 796.957031 1380.644531 Z M 512.535156 834.195312 C 661.175781 1038.746094 864.742188 1318.890625 812.777344 1366.234375 C 810.71875 1368.109375 808.417969 1369.589844 805.929688 1370.773438 C 827.859375 1299.921875 646.421875 1050.234375 498.808594 847.09375 C 405.875 719.199219 318.09375 598.402344 331.273438 586.398438 C 333.914062 583.988281 339.34375 585.273438 347.070312 589.554688 C 361.933594 625.972656 421.574219 709.015625 512.535156 834.195312 Z M 920.355469 1010.355469 C 860.90625 1064.515625 658.46875 871.371094 510.65625 730.347656 C 431.125 654.464844 377.03125 603.554688 349.007812 587.894531 C 345.59375 579.59375 344.773438 574.097656 347.09375 571.984375 C 359.761719 560.441406 436.195312 633.367188 524.699219 717.808594 C 672.128906 858.46875 853.4375 1031.445312 925.5 1005.308594 C 923.875 1007 922.191406 1008.683594 920.355469 1010.355469 Z M 939.136719 861.664062 C 960.359375 909.351562 980.375 954.414062 937.394531 994.777344 C 962.386719 957.601562 944.503906 917.324219 925.679688 875.027344 C 901.628906 820.972656 876.832031 765.148438 934.269531 706.957031 C 894.339844 760.984375 917.96875 814.097656 939.136719 861.664062 Z M 939.136719 861.664062 " fill-opacity="1" fill-rule="nonzero"/></g></g></g></g><g clip-path="url(#5e6fb26684)"><g clip-path="url(#9511d3617b)"><g clip-path="url(#66bcfe0b5d)"><g clip-path="url(#665f4975ee)"><path fill="#be6ad1" d="M 988.042969 655.855469 L 987.160156 654.882812 C 981.523438 660.015625 976.605469 665.144531 972.226562 670.269531 L 971.339844 669.296875 C 903.335938 731.246094 930.761719 792.878906 954.957031 847.25 C 972.746094 887.230469 989.679688 925.367188 969.375 960.433594 C 896.570312 980.507812 711.578125 804.027344 573.933594 672.703125 C 467.484375 571.136719 406.585938 514.289062 392.808594 526.839844 C 390.074219 529.332031 390.292969 534.734375 393.238281 542.957031 C 385.496094 539.125 380.0625 538.449219 376.992188 541.25 C 374.257812 543.742188 374.476562 549.144531 377.421875 557.371094 C 369.679688 553.539062 364.246094 552.859375 361.171875 555.660156 C 346.976562 568.59375 412.074219 659.761719 528.355469 819.785156 C 662.03125 1003.738281 840.085938 1248.792969 836.796875 1330.71875 C 765.777344 1329.453125 605.152344 1182.132812 473.011719 1060.917969 C 356.703125 954.230469 284.609375 889.582031 268.601562 904.167969 C 265.574219 906.921875 264.097656 911.371094 263.886719 917.300781 C 258.933594 916.007812 255.203125 916.371094 252.78125 918.578125 C 249.757812 921.332031 248.28125 925.785156 248.066406 931.710938 C 243.113281 930.417969 239.382812 930.78125 236.960938 932.988281 C 222.089844 946.539062 244.101562 1000.507812 274.566406 1075.207031 C 327.105469 1204.019531 399.027344 1380.347656 319.253906 1453.023438 C 319.140625 1453.125 319.015625 1453.238281 318.90625 1453.339844 L 320.636719 1455.257812 C 320.757812 1455.148438 320.875 1455.042969 320.996094 1454.933594 C 326.289062 1450.109375 330.914062 1444.835938 334.949219 1439.171875 L 336.457031 1440.84375 C 336.578125 1440.738281 336.695312 1440.628906 336.816406 1440.519531 C 342.109375 1435.695312 346.734375 1430.421875 350.769531 1424.761719 L 352.28125 1426.433594 C 352.398438 1426.324219 352.515625 1426.214844 352.636719 1426.105469 C 433.742188 1352.21875 361.425781 1174.917969 308.601562 1045.402344 C 292.675781 1006.351562 278.605469 971.835938 271.414062 946.621094 C 309.242188 972.042969 373.148438 1030.660156 439.628906 1091.640625 C 590.230469 1229.785156 777.664062 1401.714844 830.335938 1353.726562 C 832.90625 1351.386719 834.894531 1348.53125 836.351562 1345.207031 C 839.996094 1343.855469 843.289062 1341.929688 846.15625 1339.316406 C 848.726562 1336.976562 850.714844 1334.117188 852.171875 1330.792969 C 855.8125 1329.445312 859.105469 1327.519531 861.976562 1324.90625 C 915.65625 1276 719.609375 1006.210938 562.085938 789.4375 C 509.351562 716.867188 458.285156 646.585938 426.371094 597.164062 C 457.691406 624.367188 497.6875 662.527344 540.515625 703.390625 C 697.335938 853.015625 892.503906 1039.222656 953.734375 983.4375 C 957.265625 980.222656 960.359375 976.976562 963.136719 973.707031 C 965.410156 972.394531 967.558594 970.84375 969.554688 969.027344 C 973.085938 965.808594 976.179688 962.5625 978.957031 959.296875 C 981.230469 957.984375 983.378906 956.433594 985.375 954.613281 C 1031.378906 912.703125 1010.773438 866.398438 988.960938 817.375 C 963.953125 761.183594 938.09375 703.074219 1004.71875 642.378906 L 1002.976562 640.46875 C 997.34375 645.605469 992.425781 650.734375 988.042969 655.855469 Z M 957.320312 846.199219 C 933.265625 792.144531 908.46875 736.324219 965.90625 678.128906 C 925.972656 732.15625 949.609375 785.277344 970.777344 832.84375 C 990.484375 877.132812 1009.144531 919.160156 977.277344 957.253906 C 975.949219 957.992188 974.558594 958.621094 973.132812 959.183594 C 991.890625 923.902344 975.003906 885.949219 957.320312 846.199219 Z M 394.546875 528.75 C 407.214844 517.210938 483.648438 590.136719 572.152344 674.570312 C 715.9375 811.757812 891.945312 979.667969 967.410156 963.640625 C 965.660156 966.335938 963.683594 969.011719 961.457031 971.667969 C 895.050781 1008.578125 701.050781 823.488281 558.117188 687.113281 C 478.578125 611.226562 424.484375 560.316406 396.460938 544.652344 C 393.050781 536.355469 392.230469 530.863281 394.546875 528.75 Z M 378.730469 543.160156 C 381.375 540.753906 386.800781 542.035156 394.523438 546.316406 C 398.394531 555.796875 405.296875 568.4375 414.996094 584.160156 C 400.964844 572.503906 389.492188 564.015625 380.644531 559.070312 C 377.234375 550.769531 376.410156 545.273438 378.730469 543.160156 Z M 530.449219 818.265625 C 437.515625 690.375 349.734375 569.578125 362.914062 557.574219 C 365.554688 555.164062 370.980469 556.445312 378.710938 560.730469 C 393.574219 597.148438 453.210938 680.191406 544.179688 805.371094 C 685.554688 999.933594 876.609375 1262.859375 850.21875 1328.824219 C 846.894531 1329.953125 843.265625 1330.589844 839.324219 1330.714844 C 842.417969 1247.597656 671.089844 1011.808594 530.449219 818.265625 Z M 270.339844 906.078125 C 285.414062 892.34375 375.6875 975.152344 471.261719 1062.824219 C 603.304688 1183.941406 763.648438 1331.019531 836.667969 1333.089844 C 836.339844 1336.859375 835.589844 1340.25 834.394531 1343.234375 C 772.324219 1364.386719 598.476562 1204.929688 457.183594 1075.328125 C 361.289062 987.363281 295.484375 928.027344 266.359375 918.070312 C 266.460938 912.5625 267.703125 908.480469 270.339844 906.078125 Z M 254.523438 920.488281 C 256.453125 918.730469 259.621094 918.5625 263.867188 919.777344 C 263.984375 925.601562 265.160156 932.6875 267.214844 940.898438 C 260.738281 936.886719 255.183594 934.066406 250.542969 932.480469 C 250.644531 926.976562 251.886719 922.890625 254.523438 920.488281 Z M 276.960938 1074.230469 C 248.019531 1003.277344 225.164062 947.234375 238.703125 934.898438 C 240.632812 933.140625 243.800781 932.976562 248.046875 934.191406 C 248.535156 958.15625 266.945312 1003.332031 290.386719 1060.796875 C 342.75 1189.175781 414.347656 1364.742188 335.851562 1437.863281 C 392.007812 1356.351562 326.070312 1194.644531 276.960938 1074.230469 Z M 306.207031 1046.382812 C 358.566406 1174.761719 430.167969 1350.328125 351.671875 1423.453125 C 407.824219 1341.941406 341.890625 1180.234375 292.777344 1059.820312 C 270.316406 1004.746094 251.527344 958.667969 250.574219 935.027344 C 255.363281 936.8125 261.269531 940.023438 268.140625 944.464844 C 274.972656 969.792969 289.28125 1004.882812 306.207031 1046.382812 Z M 828.59375 1351.824219 C 777.667969 1398.21875 591.199219 1227.175781 441.375 1089.738281 C 363.179688 1018.015625 305.007812 965.339844 270.390625 942.917969 C 268.050781 934.167969 266.636719 926.65625 266.390625 920.617188 C 297.203125 932.085938 374.414062 1002.90625 455.445312 1077.230469 C 595.363281 1205.578125 767.050781 1363.050781 832.949219 1346.265625 C 831.769531 1348.367188 830.335938 1350.234375 828.59375 1351.824219 Z M 844.414062 1337.410156 C 842.355469 1339.285156 840.054688 1340.765625 837.566406 1341.949219 C 838.398438 1339.261719 838.910156 1336.289062 839.167969 1333.097656 C 842.582031 1333.035156 845.78125 1332.621094 848.765625 1331.859375 C 847.589844 1333.953125 846.15625 1335.824219 844.414062 1337.410156 Z M 559.996094 790.960938 C 708.636719 995.511719 912.203125 1275.652344 860.234375 1322.996094 C 858.175781 1324.871094 855.878906 1326.355469 853.390625 1327.535156 C 875.324219 1256.683594 693.886719 1006.996094 546.265625 803.851562 C 472.042969 701.710938 401.117188 604.097656 382.273438 562.8125 C 391.921875 568.742188 404.523438 578.519531 419.367188 591.148438 C 447.699219 635.945312 496.121094 703.0625 559.996094 790.960938 Z M 951.992188 981.535156 C 892.542969 1035.691406 690.109375 842.550781 542.296875 701.527344 C 491.71875 653.269531 451.441406 615.128906 421.597656 589.707031 C 410.957031 572.894531 402.855469 558.84375 398.089844 548.402344 C 428.691406 567.203125 489.015625 624.757812 556.332031 688.980469 C 703.761719 829.644531 885.070312 1002.625 957.132812 976.484375 C 955.515625 978.175781 953.828125 979.859375 951.992188 981.535156 Z M 969.03125 965.953125 C 969.765625 964.859375 970.476562 963.765625 971.136719 962.671875 C 971.75 962.480469 972.359375 962.292969 972.957031 962.078125 C 971.710938 963.371094 970.402344 964.664062 969.03125 965.953125 Z M 986.597656 818.429688 C 1007.816406 866.117188 1027.832031 911.183594 984.851562 951.542969 C 1009.84375 914.367188 991.964844 874.09375 973.140625 831.792969 C 949.085938 777.742188 924.289062 721.914062 981.726562 663.71875 C 941.796875 717.75 965.429688 770.863281 986.597656 818.429688 Z M 986.597656 818.429688 " fill-opacity="1" fill-rule="nonzero"/></g></g></g></g><g clip-path="url(#a7b82976b1)"><g clip-path="url(#7aa1c5739a)"><g clip-path="url(#665ec2f892)"><g clip-path="url(#5f3586f3a6)"><path fill="#88b4cb" d="M 1051.320312 598.210938 L 1050.433594 597.238281 C 1044.800781 602.371094 1039.882812 607.5 1035.503906 612.621094 L 1034.617188 611.648438 C 1028.980469 616.78125 1024.0625 621.910156 1019.683594 627.035156 L 1018.796875 626.0625 C 950.792969 688.011719 978.21875 749.644531 1002.414062 804.019531 C 1018.054688 839.164062 1033.027344 872.878906 1022.636719 904.339844 C 943.992188 907.75 768.917969 740.714844 637.210938 615.054688 C 530.761719 513.492188 469.863281 456.640625 456.089844 469.191406 C 453.355469 471.683594 453.574219 477.085938 456.519531 485.3125 C 448.773438 481.480469 443.339844 480.804688 440.265625 483.605469 C 437.53125 486.09375 437.753906 491.496094 440.699219 499.722656 C 432.957031 495.890625 427.523438 495.214844 424.449219 498.015625 C 421.714844 500.507812 421.933594 505.910156 424.878906 514.136719 C 417.136719 510.304688 411.699219 509.628906 408.628906 512.425781 C 394.433594 525.359375 459.53125 616.527344 575.816406 776.550781 C 701.207031 949.109375 865.683594 1175.457031 882.871094 1270.464844 C 805.414062 1250.128906 658.644531 1115.503906 536.289062 1003.269531 C 419.980469 896.585938 347.882812 831.9375 331.875 846.519531 C 328.851562 849.277344 327.375 853.726562 327.164062 859.65625 C 322.210938 858.359375 318.480469 858.726562 316.058594 860.933594 C 313.03125 863.6875 311.554688 868.136719 311.34375 874.066406 C 306.390625 872.769531 302.660156 873.136719 300.238281 875.34375 C 297.214844 878.097656 295.738281 882.550781 295.523438 888.476562 C 290.574219 887.183594 286.839844 887.546875 284.417969 889.753906 C 269.546875 903.304688 291.558594 957.273438 322.023438 1031.972656 C 374.5625 1160.785156 446.484375 1337.113281 366.710938 1409.789062 C 366.597656 1409.890625 366.476562 1410.003906 366.363281 1410.105469 L 368.09375 1412.023438 C 368.214844 1411.914062 368.332031 1411.808594 368.453125 1411.699219 C 373.746094 1406.875 378.371094 1401.601562 382.40625 1395.9375 L 383.917969 1397.609375 C 384.035156 1397.503906 384.152344 1397.394531 384.273438 1397.285156 C 389.566406 1392.460938 394.191406 1387.1875 398.230469 1381.527344 L 399.738281 1383.199219 C 399.855469 1383.089844 399.972656 1382.980469 400.09375 1382.871094 C 405.386719 1378.050781 410.015625 1372.777344 414.050781 1367.113281 L 415.558594 1368.785156 C 415.675781 1368.675781 415.796875 1368.570312 415.914062 1368.457031 C 497.019531 1294.570312 424.703125 1117.269531 371.882812 987.757812 C 362.417969 964.554688 353.621094 942.96875 346.519531 923.964844 C 384.179688 954.007812 434.84375 1000.480469 487.089844 1048.40625 C 637.691406 1186.550781 825.125 1358.480469 877.800781 1310.492188 C 880.367188 1308.152344 882.355469 1305.296875 883.8125 1301.972656 C 887.457031 1300.621094 890.75 1298.695312 893.617188 1296.082031 C 896.1875 1293.742188 898.175781 1290.882812 899.632812 1287.558594 C 903.273438 1286.210938 906.566406 1284.285156 909.4375 1281.671875 C 912.007812 1279.328125 913.996094 1276.472656 915.453125 1273.148438 C 919.09375 1271.796875 922.386719 1269.875 925.257812 1267.257812 C 978.9375 1218.355469 782.890625 948.570312 625.367188 731.792969 C 596.320312 691.816406 567.773438 652.53125 542.65625 617.046875 C 557.203125 630.796875 572.402344 645.296875 587.972656 660.15625 C 744.792969 809.78125 939.960938 995.988281 1001.195312 940.203125 C 1004.726562 936.988281 1007.820312 933.742188 1010.59375 930.476562 C 1012.871094 929.164062 1015.015625 927.613281 1017.011719 925.796875 C 1020.542969 922.578125 1023.636719 919.332031 1026.414062 916.066406 C 1028.691406 914.75 1030.835938 913.199219 1032.832031 911.382812 C 1036.363281 908.164062 1039.457031 904.917969 1042.234375 901.652344 C 1044.511719 900.339844 1046.65625 898.789062 1048.652344 896.96875 C 1094.660156 855.054688 1074.054688 808.75 1052.242188 759.730469 C 1027.234375 703.539062 1001.378906 645.429688 1068 584.734375 L 1066.261719 582.820312 C 1060.621094 587.957031 1055.703125 593.085938 1051.320312 598.210938 Z M 1040.554688 899.609375 C 1039.226562 900.347656 1037.835938 900.972656 1036.410156 901.535156 C 1055.164062 866.257812 1038.28125 828.300781 1020.597656 788.554688 C 996.542969 734.5 971.746094 678.675781 1029.183594 620.484375 C 989.253906 674.511719 1012.890625 727.625 1034.054688 775.191406 C 1053.765625 819.484375 1072.425781 861.511719 1040.554688 899.609375 Z M 1004.777344 802.96875 C 980.722656 748.914062 955.925781 693.089844 1013.363281 634.894531 C 973.433594 688.921875 997.066406 742.039062 1018.234375 789.605469 C 1036.027344 829.582031 1052.957031 867.71875 1032.65625 902.785156 C 1030.398438 903.40625 1028.035156 903.851562 1025.566406 904.101562 C 1035.585938 872.21875 1020.5 838.300781 1004.777344 802.96875 Z M 1024.734375 914.019531 C 1023.40625 914.757812 1022.019531 915.386719 1020.59375 915.949219 C 1022.1875 912.949219 1023.503906 909.929688 1024.605469 906.890625 C 1026.703125 906.71875 1028.726562 906.410156 1030.6875 905.992188 C 1028.9375 908.6875 1026.957031 911.363281 1024.734375 914.019531 Z M 457.828125 471.101562 C 470.496094 459.5625 546.929688 532.488281 635.429688 616.925781 C 773.789062 748.933594 941.976562 909.382812 1021.714844 907.03125 C 1020.421875 910.449219 1018.78125 913.835938 1016.835938 917.195312 C 944.03125 937.269531 759.042969 760.792969 621.398438 629.46875 C 541.863281 553.582031 487.769531 502.671875 459.746094 487.007812 C 456.328125 478.710938 455.507812 473.214844 457.828125 471.101562 Z M 1008.914062 928.433594 C 942.511719 965.339844 748.511719 780.253906 605.574219 643.878906 C 554.996094 595.621094 514.726562 557.488281 484.882812 532.066406 C 474.238281 515.25 466.136719 501.203125 461.371094 490.757812 C 491.972656 509.5625 552.300781 567.113281 619.613281 631.335938 C 763.398438 768.523438 939.40625 936.433594 1014.867188 920.40625 C 1013.121094 923.101562 1011.136719 925.777344 1008.914062 928.433594 Z M 442.007812 485.515625 C 444.648438 483.109375 450.078125 484.386719 457.804688 488.671875 C 461.671875 498.152344 468.578125 510.792969 478.277344 526.515625 C 464.246094 514.855469 452.773438 506.367188 443.921875 501.421875 C 440.507812 493.121094 439.6875 487.628906 442.007812 485.515625 Z M 482.652344 533.511719 C 493.988281 551.433594 508.539062 572.933594 526.015625 597.910156 C 504.039062 577.371094 485.054688 560.105469 469.0625 546.480469 C 458.414062 529.664062 450.316406 515.613281 445.550781 505.171875 C 455.203125 511.101562 467.804688 520.882812 482.652344 533.511719 Z M 426.1875 499.925781 C 428.832031 497.519531 434.257812 498.800781 441.984375 503.082031 C 445.855469 512.5625 452.757812 525.203125 462.460938 540.925781 C 448.425781 529.269531 436.953125 520.78125 428.101562 515.832031 C 424.691406 507.535156 423.871094 502.039062 426.1875 499.925781 Z M 466.835938 547.925781 C 495.164062 592.71875 543.585938 659.832031 607.453125 747.726562 C 748.832031 942.28125 939.886719 1205.214844 913.496094 1271.175781 C 910.171875 1272.308594 906.542969 1272.945312 902.601562 1273.070312 C 905.695312 1189.945312 734.367188 954.160156 593.722656 760.613281 C 519.503906 658.476562 448.574219 560.867188 429.734375 519.582031 C 439.382812 525.515625 451.988281 535.292969 466.835938 547.925781 Z M 577.90625 775.03125 C 484.972656 647.140625 397.191406 526.34375 410.371094 514.339844 C 413.011719 511.929688 418.441406 513.210938 426.167969 517.496094 C 441.03125 553.914062 500.667969 636.957031 591.632812 762.132812 C 725.308594 946.089844 903.363281 1191.144531 900.074219 1273.066406 C 895.574219 1272.988281 890.722656 1272.339844 885.53125 1271.128906 C 869.671875 1176.558594 710.214844 957.105469 577.90625 775.03125 Z M 899.949219 1275.445312 C 899.621094 1279.210938 898.871094 1282.601562 897.675781 1285.589844 C 894.351562 1286.71875 890.722656 1287.355469 886.78125 1287.480469 C 886.941406 1283.226562 886.636719 1278.566406 885.910156 1273.535156 C 890.882812 1274.667969 895.574219 1275.320312 899.949219 1275.445312 Z M 333.621094 848.429688 C 348.691406 834.695312 438.964844 917.503906 534.539062 1005.175781 C 657.277344 1117.761719 804.46875 1252.769531 883.25 1272.90625 C 884.085938 1278.214844 884.429688 1283.082031 884.253906 1287.484375 C 813.234375 1286.21875 652.613281 1138.898438 520.46875 1017.683594 C 424.574219 929.71875 358.769531 870.386719 329.640625 860.425781 C 329.742188 854.917969 330.980469 850.832031 333.621094 848.429688 Z M 884.128906 1289.859375 C 883.800781 1293.625 883.050781 1297.015625 881.855469 1300 C 819.785156 1321.152344 645.9375 1161.699219 504.648438 1032.097656 C 426.453125 960.367188 368.28125 907.691406 333.660156 885.273438 C 331.324219 876.523438 329.910156 869.011719 329.664062 862.96875 C 360.476562 874.441406 437.6875 945.261719 518.71875 1019.589844 C 650.765625 1140.707031 811.109375 1287.785156 884.128906 1289.859375 Z M 317.800781 862.839844 C 319.730469 861.082031 322.898438 860.917969 327.144531 862.132812 C 327.261719 867.960938 328.441406 875.042969 330.496094 883.25 C 324.019531 879.238281 318.460938 876.421875 313.824219 874.835938 C 313.921875 869.328125 315.160156 865.246094 317.800781 862.839844 Z M 331.421875 886.816406 C 333.769531 895.53125 337.007812 905.40625 340.929688 916.296875 C 332.34375 909.644531 324.644531 904.085938 317.847656 899.683594 C 315.511719 890.933594 314.097656 883.421875 313.851562 877.378906 C 318.640625 879.164062 324.546875 882.375 331.421875 886.816406 Z M 301.980469 877.253906 C 303.910156 875.496094 307.078125 875.328125 311.324219 876.546875 C 311.441406 882.371094 312.617188 889.457031 314.675781 897.664062 C 308.199219 893.652344 302.640625 890.835938 298.003906 889.25 C 298.101562 883.738281 299.34375 879.65625 301.980469 877.253906 Z M 324.417969 1030.996094 C 295.476562 960.042969 272.621094 904 286.160156 891.664062 C 288.089844 889.90625 291.257812 889.742188 295.503906 890.953125 C 295.988281 914.917969 314.402344 960.09375 337.839844 1017.558594 C 390.203125 1145.941406 461.800781 1321.507812 383.304688 1394.628906 C 439.464844 1313.117188 373.53125 1151.410156 324.417969 1030.996094 Z M 340.238281 1016.582031 C 317.773438 961.507812 298.984375 915.429688 298.03125 891.789062 C 302.820312 893.574219 308.726562 896.785156 315.597656 901.226562 C 322.429688 926.554688 336.738281 961.644531 353.664062 1003.144531 C 406.023438 1131.523438 477.625 1307.085938 399.128906 1380.214844 C 455.285156 1298.703125 389.347656 1137 340.238281 1016.582031 Z M 369.484375 988.738281 C 421.84375 1117.117188 493.445312 1292.683594 414.949219 1365.808594 C 471.105469 1284.296875 405.171875 1122.585938 356.058594 1002.175781 C 340.128906 963.121094 326.058594 928.609375 318.871094 903.390625 C 325.921875 908.132812 333.878906 914.019531 342.59375 920.871094 C 349.859375 940.621094 359.183594 963.488281 369.484375 988.738281 Z M 876.054688 1308.585938 C 825.125 1354.984375 638.660156 1183.941406 488.832031 1046.503906 C 428.253906 990.9375 379.703125 946.8125 344.789062 919.308594 C 340.695312 908.15625 337.257812 897.976562 334.691406 888.976562 C 372.515625 914.398438 436.425781 973.015625 502.90625 1033.996094 C 642.824219 1162.34375 814.507812 1319.8125 880.40625 1303.03125 C 879.226562 1305.132812 877.792969 1307 876.054688 1308.585938 Z M 891.875 1294.175781 C 889.816406 1296.050781 887.515625 1297.53125 885.027344 1298.714844 C 885.859375 1296.023438 886.367188 1293.050781 886.628906 1289.859375 C 890.039062 1289.796875 893.238281 1289.382812 896.226562 1288.621094 C 895.046875 1290.71875 893.617188 1292.585938 891.875 1294.175781 Z M 907.691406 1279.761719 C 905.636719 1281.636719 903.335938 1283.121094 900.847656 1284.300781 C 901.679688 1281.609375 902.191406 1278.640625 902.449219 1275.445312 C 905.859375 1275.382812 909.058594 1274.96875 912.046875 1274.207031 C 910.867188 1276.308594 909.433594 1278.175781 907.691406 1279.761719 Z M 623.273438 733.3125 C 771.914062 937.863281 975.480469 1218.007812 923.511719 1265.351562 C 921.453125 1267.226562 919.152344 1268.707031 916.667969 1269.886719 C 938.597656 1199.039062 757.160156 949.351562 609.546875 746.207031 C 556.8125 673.636719 505.75 603.363281 473.839844 553.941406 C 491.269531 569.085938 511.394531 587.625 533.199219 608.132812 C 558.109375 643.496094 588.382812 685.300781 623.273438 733.3125 Z M 999.449219 938.296875 C 940 992.457031 737.566406 799.316406 589.753906 658.292969 C 570.015625 639.460938 551.855469 622.175781 535.257812 606.574219 C 517.789062 581.738281 502.238281 559.019531 489.652344 539.53125 C 520.96875 566.730469 560.964844 604.890625 603.789062 645.75 C 751.222656 786.414062 932.53125 959.386719 1004.59375 933.25 C 1002.972656 934.941406 1001.285156 936.625 999.449219 938.296875 Z M 1016.492188 922.71875 C 1017.222656 921.625 1017.9375 920.53125 1018.597656 919.433594 C 1019.207031 919.246094 1019.820312 919.054688 1020.414062 918.839844 C 1019.167969 920.136719 1017.863281 921.429688 1016.492188 922.71875 Z M 1032.308594 908.308594 C 1033.042969 907.214844 1033.753906 906.121094 1034.414062 905.023438 C 1035.027344 904.835938 1035.636719 904.644531 1036.234375 904.429688 C 1034.988281 905.726562 1033.679688 907.019531 1032.308594 908.308594 Z M 1049.875 760.78125 C 1071.09375 808.46875 1091.109375 853.535156 1048.128906 893.894531 C 1073.121094 856.71875 1055.238281 816.445312 1036.417969 774.144531 C 1012.363281 720.089844 987.566406 664.269531 1045.003906 606.074219 C 1005.070312 660.101562 1028.707031 713.21875 1049.875 760.78125 Z M 1049.875 760.78125 " fill-opacity="1" fill-rule="nonzero"/></g></g></g></g><g clip-path="url(#a3a95ad5fd)"><g clip-path="url(#ca675c8074)"><g clip-path="url(#8f1e0075ce)"><g clip-path="url(#bb79151d5c)"><path fill="#5fecc7" d="M 1098.777344 554.976562 L 1097.890625 554.003906 C 1092.257812 559.136719 1087.339844 564.265625 1082.960938 569.386719 L 1082.074219 568.414062 C 1014.070312 630.367188 1041.496094 692 1065.691406 746.375 C 1083.480469 786.351562 1100.414062 824.488281 1080.109375 859.554688 C 1007.304688 879.625 822.316406 703.148438 684.671875 571.824219 C 578.222656 470.257812 517.320312 413.40625 503.542969 425.957031 C 500.808594 428.449219 501.027344 433.851562 503.976562 442.078125 C 496.230469 438.246094 490.796875 437.570312 487.722656 440.371094 C 484.992188 442.859375 485.210938 448.261719 488.15625 456.488281 C 480.414062 452.65625 474.976562 451.984375 471.90625 454.78125 C 457.710938 467.714844 522.808594 558.878906 639.089844 718.894531 C 772.761719 902.855469 950.824219 1147.910156 947.53125 1229.835938 C 876.511719 1228.570312 715.890625 1081.25 583.746094 960.039062 C 467.441406 853.351562 395.34375 788.703125 379.332031 803.285156 C 376.308594 806.042969 374.832031 810.492188 374.621094 816.421875 C 369.667969 815.125 365.9375 815.492188 363.515625 817.699219 C 360.492188 820.453125 359.015625 824.902344 358.800781 830.832031 C 353.847656 829.535156 350.117188 829.902344 347.695312 832.109375 C 332.820312 845.660156 354.832031 899.628906 385.300781 974.324219 C 437.839844 1103.136719 509.761719 1279.464844 429.988281 1352.140625 C 429.875 1352.246094 429.753906 1352.355469 429.640625 1352.457031 L 431.375 1354.375 C 431.492188 1354.269531 431.609375 1354.160156 431.730469 1354.050781 C 437.023438 1349.226562 441.648438 1343.953125 445.6875 1338.292969 L 447.195312 1339.964844 C 447.3125 1339.855469 447.429688 1339.746094 447.550781 1339.636719 C 452.847656 1334.816406 457.472656 1329.542969 461.507812 1323.878906 L 463.015625 1325.550781 C 463.132812 1325.441406 463.253906 1325.335938 463.371094 1325.222656 C 544.476562 1251.335938 472.164062 1074.035156 419.335938 944.523438 C 403.40625 905.46875 389.339844 870.953125 382.148438 845.738281 C 419.976562 871.160156 483.882812 929.777344 550.363281 990.761719 C 700.96875 1128.90625 888.398438 1300.835938 941.074219 1252.847656 C 943.644531 1250.507812 945.632812 1247.648438 947.089844 1244.324219 C 950.734375 1242.976562 954.023438 1241.050781 956.894531 1238.4375 C 959.464844 1236.09375 961.453125 1233.238281 962.910156 1229.914062 C 966.550781 1228.566406 969.84375 1226.640625 972.710938 1224.027344 C 1026.390625 1175.125 830.347656 905.335938 672.820312 688.554688 C 620.089844 615.988281 569.027344 545.714844 537.117188 496.292969 C 568.429688 523.496094 608.425781 561.652344 651.25 602.507812 C 808.070312 752.132812 1003.238281 938.339844 1064.46875 882.558594 C 1068 879.339844 1071.09375 876.09375 1073.871094 872.828125 C 1076.144531 871.515625 1078.292969 869.964844 1080.289062 868.144531 C 1083.820312 864.929688 1086.914062 861.683594 1089.691406 858.417969 C 1091.964844 857.101562 1094.109375 855.554688 1096.105469 853.734375 C 1142.113281 811.824219 1121.507812 765.519531 1099.695312 716.496094 C 1074.6875 660.300781 1048.828125 602.195312 1115.453125 541.5 L 1113.710938 539.589844 C 1108.078125 544.722656 1103.160156 549.851562 1098.777344 554.976562 Z M 1068.050781 745.320312 C 1044 691.269531 1019.203125 635.445312 1076.640625 577.25 C 1036.707031 631.277344 1060.34375 684.394531 1081.511719 731.960938 C 1101.21875 776.253906 1119.878906 818.28125 1088.007812 856.378906 C 1086.683594 857.113281 1085.292969 857.742188 1083.863281 858.304688 C 1102.621094 823.023438 1085.742188 785.066406 1068.050781 745.320312 Z M 505.285156 427.871094 C 517.953125 416.328125 594.386719 489.253906 682.890625 573.691406 C 826.675781 710.878906 1002.679688 878.789062 1078.144531 862.761719 C 1076.394531 865.453125 1074.414062 868.128906 1072.191406 870.785156 C 1005.785156 907.695312 811.78125 722.605469 668.851562 586.234375 C 589.316406 510.347656 535.222656 459.441406 507.199219 443.777344 C 503.785156 435.476562 502.96875 429.980469 505.285156 427.871094 Z M 489.464844 442.28125 C 492.109375 439.875 497.535156 441.152344 505.261719 445.4375 C 509.128906 454.917969 516.035156 467.558594 525.734375 483.28125 C 511.703125 471.621094 500.230469 463.132812 491.382812 458.1875 C 487.964844 449.886719 487.144531 444.394531 489.464844 442.28125 Z M 641.175781 717.378906 C 548.246094 589.492188 460.46875 468.695312 473.644531 456.691406 C 476.289062 454.285156 481.71875 455.566406 489.441406 459.847656 C 504.308594 496.265625 563.945312 579.308594 654.914062 704.492188 C 796.292969 899.050781 987.347656 1161.980469 960.953125 1227.941406 C 957.632812 1229.070312 954 1229.707031 950.0625 1229.835938 C 953.15625 1146.714844 781.820312 910.929688 641.175781 717.378906 Z M 381.078125 805.195312 C 396.152344 791.460938 486.425781 874.273438 582 961.941406 C 714.042969 1083.0625 874.386719 1230.136719 947.40625 1232.210938 C 947.078125 1235.976562 946.328125 1239.367188 945.132812 1242.351562 C 883.066406 1263.503906 709.214844 1104.046875 567.925781 974.445312 C 472.03125 886.480469 406.226562 827.144531 377.101562 817.1875 C 377.199219 811.679688 378.4375 807.597656 381.078125 805.195312 Z M 365.257812 819.605469 C 367.1875 817.847656 370.355469 817.683594 374.601562 818.894531 C 374.71875 824.722656 375.894531 831.804688 377.949219 840.015625 C 371.472656 836.003906 365.917969 833.1875 361.277344 831.597656 C 361.382812 826.09375 362.617188 822.011719 365.257812 819.605469 Z M 387.695312 973.347656 C 358.753906 902.394531 335.898438 846.355469 349.4375 834.019531 C 351.367188 832.261719 354.535156 832.09375 358.78125 833.3125 C 359.265625 857.273438 377.679688 902.449219 401.121094 959.914062 C 453.480469 1088.292969 525.082031 1263.855469 446.585938 1336.984375 C 502.742188 1255.46875 436.808594 1093.761719 387.695312 973.347656 Z M 416.941406 945.5 C 469.304688 1073.882812 540.902344 1249.449219 462.40625 1322.570312 C 518.5625 1241.058594 452.628906 1079.347656 403.515625 958.9375 C 381.050781 903.859375 362.265625 857.785156 361.308594 834.144531 C 366.097656 835.929688 372.003906 839.140625 378.878906 843.582031 C 385.707031 868.910156 400.011719 904 416.941406 945.5 Z M 939.332031 1250.941406 C 888.402344 1297.335938 701.933594 1126.292969 552.105469 988.859375 C 473.914062 917.136719 415.742188 864.460938 381.125 842.039062 C 378.785156 833.289062 377.371094 825.777344 377.125 819.734375 C 407.9375 831.203125 485.148438 902.027344 566.179688 976.351562 C 706.097656 1104.699219 877.785156 1262.167969 943.683594 1245.386719 C 942.507812 1247.484375 941.074219 1249.351562 939.332031 1250.941406 Z M 955.148438 1236.527344 C 953.09375 1238.402344 950.792969 1239.882812 948.304688 1241.066406 C 949.136719 1238.378906 949.644531 1235.40625 949.90625 1232.214844 C 953.316406 1232.152344 956.515625 1231.738281 959.503906 1230.976562 C 958.324219 1233.074219 956.890625 1234.941406 955.148438 1236.527344 Z M 670.726562 690.078125 C 819.367188 894.628906 1022.9375 1174.773438 970.96875 1222.117188 C 968.910156 1223.992188 966.609375 1225.472656 964.121094 1226.65625 C 986.054688 1155.804688 804.617188 906.117188 657 702.972656 C 582.773438 600.835938 511.847656 503.222656 493.003906 461.9375 C 502.65625 467.871094 515.257812 477.648438 530.109375 490.28125 C 558.4375 535.074219 606.859375 602.183594 670.726562 690.078125 Z M 1062.726562 880.652344 C 1003.277344 934.8125 800.839844 741.667969 653.03125 600.644531 C 602.453125 552.390625 562.179688 514.253906 532.335938 488.835938 C 521.691406 472.019531 513.59375 457.96875 508.828125 447.527344 C 539.429688 466.328125 599.753906 523.878906 667.066406 588.101562 C 814.496094 728.765625 995.808594 901.746094 1067.871094 875.605469 C 1066.25 877.292969 1064.566406 878.976562 1062.726562 880.652344 Z M 1079.765625 865.070312 C 1080.5 863.980469 1081.210938 862.882812 1081.875 861.789062 C 1082.484375 861.597656 1083.09375 861.410156 1083.691406 861.195312 C 1082.445312 862.492188 1081.140625 863.785156 1079.765625 865.070312 Z M 1097.332031 717.546875 C 1118.550781 765.234375 1138.566406 810.296875 1095.585938 850.660156 C 1120.578125 813.484375 1102.699219 773.207031 1083.875 730.910156 C 1059.820312 676.855469 1035.023438 621.035156 1092.464844 562.839844 C 1052.53125 616.867188 1076.164062 669.980469 1097.332031 717.546875 Z M 1097.332031 717.546875 " fill-opacity="1" fill-rule="nonzero"/></g></g></g></g></svg>